<svg preserveAspectRatio="none" width="100%" height="100%" overflow="visible" style="display: block;" viewBox="0 0 40 40" fill="none" xmlns="http://www.w3.org/2000/svg">
<g id="fluent:image-add-24-regular">
<path id="Vector" d="M20 10.8333C20 9.62955 19.7629 8.43755 19.3022 7.3254C18.8416 6.21325 18.1663 5.20272 17.3151 4.35152C16.4639 3.50032 15.4534 2.82511 14.3413 2.36444C13.2291 1.90377 12.0371 1.66667 10.8333 1.66667C9.62955 1.66667 8.43755 1.90377 7.3254 2.36444C6.21325 2.82511 5.20272 3.50032 4.35152 4.35152C3.50032 5.20272 2.82511 6.21325 2.36444 7.3254C1.90377 8.43755 1.66667 9.62955 1.66667 10.8333C1.66667 13.2645 2.63244 15.5961 4.35152 17.3151C6.0706 19.0342 8.40218 20 10.8333 20C13.2645 20 15.5961 19.0342 17.3151 17.3151C19.0342 15.5961 20 13.2645 20 10.8333ZM11.6667 11.6667L11.6683 15.84C11.6683 16.061 11.5805 16.273 11.4243 16.4293C11.268 16.5855 11.056 16.6733 10.835 16.6733C10.614 16.6733 10.402 16.5855 10.2457 16.4293C10.0895 16.273 10.0017 16.061 10.0017 15.84V11.6667H5.82667C5.60565 11.6667 5.39369 11.5789 5.23741 11.4226C5.08113 11.2663 4.99333 11.0543 4.99333 10.8333C4.99333 10.6123 5.08113 10.4004 5.23741 10.2441C5.39369 10.0878 5.60565 10 5.82667 10H10V5.83333C10 5.61232 10.0878 5.40036 10.2441 5.24408C10.4004 5.0878 10.6123 5 10.8333 5C11.0543 5 11.2663 5.0878 11.4226 5.24408C11.5789 5.40036 11.6667 5.61232 11.6667 5.83333V10H15.8283C16.0493 10 16.2613 10.0878 16.4176 10.2441C16.5739 10.4004 16.6617 10.6123 16.6617 10.8333C16.6617 11.0543 16.5739 11.2663 16.4176 11.4226C16.2613 11.5789 16.0493 11.6667 15.8283 11.6667H11.6667ZM29.5833 7.5H21.145C20.8595 6.61961 20.4624 5.77944 19.9633 5H29.5833C31.0199 5 32.3977 5.57068 33.4135 6.5865C34.4293 7.60233 35 8.98008 35 10.4167V29.5833C35 31.0199 34.4293 32.3977 33.4135 33.4135C32.3977 34.4293 31.0199 35 29.5833 35H10.4167C8.98008 35 7.60233 34.4293 6.5865 33.4135C5.57068 32.3977 5 31.0199 5 29.5833V19.9633C5.77167 20.4583 6.61167 20.8567 7.5 21.145V29.5833C7.50111 29.9311 7.55833 30.2611 7.67167 30.5733L17.3767 21.0717C18.042 20.4204 18.9257 20.0399 19.856 20.0041C20.7864 19.9684 21.6967 20.28 22.41 20.8783L22.6233 21.0717L32.3267 30.575C32.44 30.2639 32.4978 29.9333 32.5 29.5833V10.4167C32.5 9.64312 32.1927 8.90125 31.6457 8.35427C31.0987 7.80729 30.3569 7.5 29.5833 7.5ZM30.55 32.335L20.875 22.8583C20.6639 22.6515 20.3864 22.5261 20.0917 22.5044C19.7969 22.4827 19.504 22.5662 19.265 22.74L19.125 22.8567L9.44667 32.335C9.75111 32.4428 10.0744 32.4978 10.4167 32.5H29.5833C29.9217 32.5 30.2483 32.4417 30.55 32.335ZM25.4217 10.8333C26.4171 10.8333 27.3718 11.2288 28.0757 11.9327C28.7796 12.6365 29.175 13.5912 29.175 14.5867C29.175 15.5821 28.7796 16.5368 28.0757 17.2407C27.3718 17.9446 26.4171 18.34 25.4217 18.34C24.4262 18.34 23.4715 17.9446 22.7677 17.2407C22.0638 16.5368 21.6683 15.5821 21.6683 14.5867C21.6683 13.5912 22.0638 12.6365 22.7677 11.9327C23.4715 11.2288 24.4262 10.8333 25.4217 10.8333ZM25.4217 13.3333C25.0893 13.3333 24.7705 13.4654 24.5354 13.7004C24.3004 13.9355 24.1683 14.2543 24.1683 14.5867C24.1683 14.9191 24.3004 15.2379 24.5354 15.4729C24.7705 15.708 25.0893 15.84 25.4217 15.84C25.7541 15.84 26.0729 15.708 26.3079 15.4729C26.543 15.2379 26.675 14.9191 26.675 14.5867C26.675 14.2543 26.543 13.9355 26.3079 13.7004C26.0729 13.4654 25.7541 13.3333 25.4217 13.3333Z" fill="var(--fill-0, #1E1EE2)"/>
</g>
</svg>
